<?xml version="1.0" standalone="no"?>
<!DOCTYPE svg PUBLIC "-//W3C//DTD SVG 20010904//EN"
 "http://www.w3.org/TR/2001/REC-SVG-20010904/DTD/svg10.dtd">
<svg version="1.0" xmlns="http://www.w3.org/2000/svg"
 width="24.000000pt" height="24.000000pt" viewBox="0 0 24.000000 24.000000"
 preserveAspectRatio="xMidYMid meet">

<g transform="translate(0.000000,24.000000) scale(0.100000,-0.100000)"
fill="#000000" stroke="none">
<path d="M45 233 c11 -3 29 -12 40 -22 20 -16 20 -16 1 7 -11 12 -29 21 -40
21 -20 -1 -20 -2 -1 -6z"/>
<path d="M155 220 c-10 -11 -13 -20 -8 -20 6 0 13 6 16 14 3 8 16 16 29 19 21
4 21 4 2 6 -11 0 -29 -8 -39 -19z"/>
<path d="M1 194 c0 -11 8 -29 19 -39 11 -10 20 -13 20 -7 0 6 -6 13 -12 15 -8
3 -5 6 6 6 15 1 16 4 7 15 -9 11 -9 15 1 19 8 3 6 6 -6 6 -12 1 -16 -4 -13
-14 4 -8 2 -17 -3 -20 -5 -3 -11 5 -13 17 -4 21 -4 21 -6 2z"/>
<path d="M231 192 c0 -12 -8 -25 -16 -28 -8 -4 -15 -11 -15 -17 0 -6 9 -2 21
10 12 12 19 28 16 39 -4 16 -5 15 -6 -4z"/>
<path d="M150 176 c0 -2 8 -10 18 -17 15 -13 16 -12 3 4 -13 16 -21 21 -21 13z"/>
<path d="M138 125 c2 -14 6 -25 8 -25 2 0 4 11 4 25 0 14 -4 25 -9 25 -4 0 -6
-11 -3 -25z"/>
<path d="M90 131 c0 -5 3 -17 6 -26 5 -13 8 -14 15 -3 13 20 11 38 -6 38 -8 0
-15 -4 -15 -9z"/>
<path d="M17 84 c-10 -14 -16 -32 -14 -42 4 -14 5 -14 6 2 0 11 8 28 18 38 9
10 14 20 12 22 -2 2 -12 -7 -22 -20z"/>
<path d="M206 92 c16 -18 5 -62 -15 -61 -10 0 -11 2 -3 6 6 2 12 9 12 14 0 6
-4 7 -10 4 -9 -6 -15 8 -11 29 1 5 -5 4 -13 -4 -18 -14 -22 -25 -6 -15 6 4 10
-6 9 -22 0 -15 -3 -22 -6 -15 -2 6 -9 12 -15 12 -6 0 -3 -9 7 -20 10 -11 28
-19 39 -19 18 2 17 3 -4 7 l-25 5 25 6 c15 4 27 16 31 31 l6 25 5 -25 c4 -21
5 -22 7 -4 0 11 -9 29 -21 40 -13 10 -18 13 -12 6z"/>
<path d="M72 76 c7 -8 15 -12 17 -11 5 6 -10 25 -20 25 -5 0 -4 -6 3 -14z"/>
<path d="M30 52 c0 -14 11 -21 26 -15 8 3 11 9 8 14 -7 11 -34 12 -34 1z"/>
<path d="M79 24 c-7 -9 -22 -14 -36 -11 -12 2 -20 0 -17 -4 9 -15 35 -10 61
11 14 11 21 20 16 20 -6 0 -16 -7 -24 -16z"/>
</g>
</svg>
